<?xml version="1.0" encoding="UTF-8"?>
<svg version="1.1" viewBox="0 0 2048 266" width="1280" height="1280" xmlns="http://www.w3.org/2000/svg">
<path transform="translate(0)" d="m0 0h2048v266h-2048z" fill="#3B9BEE"/>
<path transform="translate(24,29)" d="m0 0h50l25 2 10 3 5 5 8 7 11 11v3h2l2 7 3 35v18l-3 30-2 9h-2v4h-2v3h-2l-2 4-5 5h-2l-1 3-15 10-14 7-4 1h-74l-1-1-1-7-1-19v-138l2-1z" fill="#D2936C"/>
<path transform="translate(1363,53)" d="m0 0h15l3 1v15l-5 2h-11l-2 64-8 1 3 2-7 4-5 13-18 4h-6l-1 9h2l1 2 5 1 24 1 24 2 6 1 1 19v21l-3 15-4 4-9 2-12 1h-66l-14-2-3-3v-3l-4-8v-2h-2l-3-10v-3h-2v-9l9-3 9-1-1-28 2-13 1-2h7v-2h2l-2-8 1-2-8-2-2-25v-18l1-9 2-4h2v-2l10-5 8-2 31-1 10-2 3-7 4-5z" fill="#D0E9FB"/>
<path transform="translate(1069,70)" d="m0 0h16l13 1 2 2v1h10l13-3 8-1h28l19 3 1 29 1 92-4 1h-20l1-102h-38v18l-2 84-3 1-35-1-2-2 1-1-1-56-1-13h-2v-29h-17l-1 12-3 5-6 2-2 7-3 9-5 5-1 29v31l-5 1h-17l-1-123 1-1h30z" fill="#D1EAFC"/>
<path transform="translate(863,70)" d="m0 0h19l10 1 3 3 5 1h12l8-4 5-1h30l13 3 5 3 1 28 1 90-1 1h-23l1-102h-38v21l-1 28-1 53h-39v-78l-1-10-3-3v-11h-18v8l-3 7h-2v2l-5 2-1 2h-2l-2 5-2 2-1-1-1 25-1 49-5 1h-18v-123l1-1h23l1 1 5-1z" fill="#D1EAFC"/>
<path transform="translate(1814,69)" d="m0 0h22l20 3 9 4 6 5 4 13 2 1 4 9 3 7 4 5 2 4 1 9-2 14-7 10-4 4-2-2-1 15-3 8-9 10-10 5-8 2h-32l-16-4-3-5-3-7-2-3-7-2-1-2-5-2-3-19v-39l1-12 4-8 12-13 8-6 7-3z" fill="#D1EAFC"/>
<path transform="translate(298,15)" d="m0 0h21l11 4 2 8v18l-2 21h2v2h38l19 3 10 5 1 1 1 8v109l-1 1h-24l-2-28-1-19-1-45-6-4-12-3-1-1h-11l-1 2h-2l-1 4-3 5-1 5h-2l-1 6-2 50v26l-2 1-28 2-1-19-1-5v-156z" fill="#D2936C"/>
<path transform="translate(585,67)" d="m0 0h12l9 5v21l-2 7-6 4-4 5-2 4h-2l-1 7-4 14-4 8-1 5h-2l-2 10-6 11-5 19-3 10-12 24h-2l-1 4-3 4h-2l-1 4-2 1-1 3-4 3h-30l-18-1-2-10v-11l7-3 24-4 6-3 1-6v-31h-2l-1-11-2-5h-2l-1-5h-2l-5-10-4-13-3-8-4-15-5-9v-4l-3-1-3-8v-13l7-1h16l12 2 3 3 5 30 2 8v4l9 1 18 5 2 1 3-17 2-26 1-5 16-6z" fill="#D3936A"/>
<path transform="translate(1531,70)" d="m0 0h24l8 2 15 5 8 10 2 23 1 70 9-2 5-3 1 1 2 17-1 1h-38l-1-3v-13h-12v3l-3 1-1-1-1 14-8 1h-14l-14-1-9-3-1-3-2-1v-5l-6-2-8-6-2-8v-22l1-9 15-4 8-2 2-5 3-1 1-5 5-1v-2l8-2v-2l17-2 4-5 1-5-3-2-2-4-11-1-8 2h-12l-8-4-1-4-4-2 1-5 4-4 15-5z" fill="#D1EAFC"/>
<path transform="translate(659,67)" d="m0 0h24l14 3 5 2v2l4 1 4 9 1 2 5 47 2 18 5 16 2 9 2 19h-21l-12-5-5-4-3-11-2-41-5-1h-16l-12 2v35l1 2 19 1 3 3 6 7 2 8-1 3-13 3h-21l-14-3-6-4-4-12-1-5v-35l3-4 13-1 5-2 2-3-4-2 9-4 14-5 16-4 3-1v-17l-37 1-13 2h-6v-23l1-1h5v-2z" fill="#D3936B"/>
<path transform="translate(210,66)" d="m0 0h15l16 3 10 5 4 3v2h2l3 32 2 33 1 12 4 2 9 17 1 5v13l-1 1h-31l-2-4-5-2-4-6-1-6-1-41-4-1-32-1 1 40 17 1 2 1 4 7v10l-2 3-4 1h-30l-5-3-3-3v-2h-2v-4h-2l-4-10-1-13v-13l1-9 9-6 10-4 11-8 27-9h4l1-3v-11l-6-2h-31l-11 4-4-1-2-7-1-8v-9l1-1h5v-2l22-5z" fill="#D4936A"/>
<path transform="translate(1966,70)" d="m0 0h24l16 4 6 4 4 6 1 4 1 15v92h-21l-1-4v-60l-2-1-5-19-4-16v-1l-27-1v10l-2 7-6 3-6 10-4 12-2-3-1 62-2 1h-20v-124h22l2 1z" fill="#D1EAFC"/>
<path transform="translate(753,29)" d="m0 0h10l6 1v166h-42l-1-2-2-18v-23l3-9 2-14 1-3 2-13 1-19 1-37 2-18 3-8 5-2z" fill="#D1EAFC"/>
<path transform="translate(53,57)" d="m0 0h16l11 3 8 4 10 8 5 6 3 3v2h2l1 7v37l-1 5h-2l-2 10-5 5-6 2v2l-8 4-12 3h-25v-2l-5-1-2-1-2-15-1-48v-25l4-5 6-3z" fill="#3B9AEE"/>
<path transform="translate(1638,41)" d="m0 0 2 1v3l6 2 2 5 2 11v7l12 1 5 1 22 1 1 1v18l-9 1-30 1v61l15 2 7 3 1 2h8l6 3 2 2 1 28-10 1h-16l-33-2-2-19-1-29v-53h-11l-10-2v-14l1-2 12-6 3-5 4-8 2-1 4-9 2-1z" fill="#D1EAFC"/>
<path transform="translate(1403,72)" d="m0 0h67l10 3 3 3 5 2-2 7-26 7-12 4-4 14-4 6-4 7-3 13-1 16-2 17-3 9h-2l-1 6h3v6l-4 3h-18l-1-2-1-57z" fill="#D1EAFC"/>
<path transform="translate(1711,71)" d="m0 0h30l3 6 2 7 3 7 1 15v28h2v30l-1 30-25 1h-14l-1-2z" fill="#D1EAFC"/>
<path transform="translate(1539,64)" d="m0 0h8v2l5-1 7 2 7 1 7 3 6 1 2 3 3 1 4 7 2 12-1 16-2-1-2-23-7-8v-2l-7-1-10-4-6-1h-24l-13 2-12 4-3 3-1 5 4 4v2l6 2 2 1h12l11-2 8 1 3 5 3 3-3 7-3 3-6 1h-11v2l-8 2v2l-5 2-1 4-7 7-17 5-4-1 5-8 1-5-2-7h-3l-5-5-4-5-6-2h-8l-2 1h-7l1-3-4 4-3 1 1 4-1 8h-1v24l-1 21h-2v17l-2 13v2l-8 1-12-1 3-3 1-6h-3v-7l3 1 2-10 2-16 1-16 4-15 4-6 4-8 3-11 10-4 21-6 8-2 1-6-5-2v-2l-12-3-66-1v-1l57-1 23 2h17l13-3 5-2 9-1z" fill="#68B8F7"/>
<path transform="translate(1958,93)" d="m0 0h27l1 3 2 9 2 6 4 15 3 10v59l-1 1h-7l-5-2-7-20-1-11-2-2-2-21v-33l-1-12-12-1v67l-5 25-1 3-3-1v8h-12l-3-2h2v-62l1-5 2 4 2-3 2-6 6-10 6-2z" fill="#68B8F7"/>
<path transform="translate(442,69)" d="m0 0h20l1 1 1 40v46l-1 37-2 2h-24l-2-40v-83l1-2z" fill="#CF936E"/>
<path transform="translate(1818,93)" d="m0 0h23l11 2-1 2 2 25v30l-11 8-9 4-8 3-7-1-1-4-3-3-3-8-4-4-3-9v-10l8-19 2-13 1-2z" fill="#3B9BEF"/>
<path transform="translate(1220,71)" d="m0 0h20v124h-21l-1-123z" fill="#D1EAFC"/>
<path transform="translate(1261,196)" d="m0 0 2 1-1 9h2l3 9v4h2l4 8v2l2 1-1 3 6 2 10 1h76l-3 3-4 6 2 1-1 5-1 6-2 1v8h-67l-1-5v-12-3-3l-4-2-3-2-7-2v-2l-5-1-9-6z" fill="#68B8F7"/>
<path transform="translate(1178,75)" d="m0 0h3l2 5 1 18h5l4 3-2 1 2 2v3l10 1 6 4 2 4 1 20v11l-4 9-3 4-2 5h-4l-2 4-6 2-3 5-4 1-2 17-3-2-1-90z" fill="#67B7F6"/>
<path transform="translate(1376,70)" d="m0 0 4 1 3 3 2 13v21l-1 4h-4l-2 5-2 2-3 12h-2l-2 5-5 9v17l-1 7 3 3 17 2v1l-20-1-10-1-24-1-6-2v-2h-2l1-9 21-4h3l1-6 4-8 6-3-3-2 1-1h8v-25l1-31 1-8z" fill="#67B7F6"/>
<path transform="translate(196,133)" d="m0 0h32l5 2 1 41 2 8 9 9h31l2-2-1 4-50 1-12 1h-25v-1l28-1 1-3v-10l-3-4v-3l-17-1-2-1-1-4z" fill="#9B969C"/>
<path transform="translate(663,132)" d="m0 0h16l6 2 2 41 3 11 8 5 7 2v1l-21 1-14 1v-1l11-1-1-7-3-7-4-4v-2l-21-1-2-3v-35l6-2z" fill="#7C8CAB"/>
<path transform="translate(1830,67)" d="m0 0 19 1 18 6v2l4 2 15 15 7 2 5 5v2h2l5 11v2l2 1v7l-2 7h-2l-1 13-4 16-3 6-5 4h-2l-2 5-3 2h-3l-2 4-9 4-4 4-2-1 8-9 3-8 1-15 2-1 1 2 3-1 2-5 5-7 2-14-1-9-5-8-3-4-3-8-2-5-2 2-4-16-8-6-11-3-15-2-21-1v-1z" fill="#67B7F6"/>
<path transform="translate(1057,95)" d="m0 0 1 2v45l-1 36-1 5-2 2-2 6-2 4-10 1-9-1v-1h5l-1-4v-27l1-32h3 2l2-10 4-8 6-2 2-5 1-10z" fill="#68B8F7"/>
<path transform="translate(738,30)" d="m0 0h6l-3 2h-2l-1 5-2 8-1 17-1 36-1 19-2 12-2 7-2 13-2 4-1 21h-1l-3-14-3-9-6-54v-7h1l2 7 9 3 1-10 2-55 2-4z" fill="#68B8F7"/>
<path transform="translate(1957,108)" d="m0 0h1l1 5v48l-5 25-1 3-3-1v8h-12l-3-2h2v-62l1-5 2 4 2-3 2-6 6-10z" fill="#67B7F6"/>
<path transform="translate(627,73)" d="m0 0h6v1l-5 1-1 23 19-3h37l1 4-1 13-6 3-20 5-15 6 3 2-2 4-5 2-13 1-2 3-1 30h-1v-33l13-7-2-3 1-6-6-2-1-15v-28z" fill="#6E96BC"/>
<path transform="translate(973,79)" d="m0 0 4 1 1 3 1 18 1 4 7 6 1-4 6-2 6-3 2 1-7 5-1 2 11-3v2l-5 3-3 5v8l-2 9 2 2-1 4 3 6-2 7v3l1 2-3 3h-2v2l-6 3-5-2-1-5-2 5-2 30-3-3-1-87z" fill="#67B7F6"/>
<path transform="translate(851,93)" d="m0 0h8v1h-7l1 3-1 74-3 1-2 5-3 5-2-4-4 9-2 8-5-1v-49l1-40h1l1 15 4-6h2l1-3 5-1v-2h2l1-5z" fill="#68B8F7"/>
<path transform="translate(1227,11)" d="m0 0h6l11 7 3 7 4 4 3 9 1 7v4l2 1-10 2 3 2-17 4-10-1-3-1v-2l-6-2v-9l-1-5 1-13 2-3h2l1-6z" fill="#67B7F6"/>
<path transform="translate(175,84)" d="m0 0h1l2 14 4 1 11-4h31l7 3v11l-2 3-13 4-18 6-13 9-8 2v-13l-2-27z" fill="#8493A8"/>
<path transform="translate(1651,93)" d="m0 0h14l-2 1-1 4h4l1 4 1 6-1 11v15l3 12 5 5 13 5h2l1 9v27h-1l-1-25-7-4-8-1-8-4-14-2-2 2v-64z" fill="#67B7F6"/>
<path transform="translate(1818,93)" d="m0 0h23l11 2-1 2 2 25v30l-11 8-9 4-8 3-7-1-1-4-3-3-3-8-4-4-3-9v-10l8-19 2-13 1-2zm5 6-5 3h-3l-1 29 2 11 3 9 5 2h7l3-1h5l8-3 3-1 2-3v-20l-1-7-4-4-2-3h-2l-1-2-10-6-5-4z" fill="#68B8F7"/>
<path transform="translate(446,12)" d="m0 0h8l7 5 3 11v25l-2 2-6 1h-12l-11-2-3-10v-9l3-12 7-8z" fill="#9999A3"/>
<path transform="translate(484,229)" d="m0 0h1l1 10h48l3-2-2 4-6 15-3 10h-41l-1-10z" fill="#6E96BC"/>
<path transform="translate(1608,91)" d="m0 0 21 2 1 53v22l-4-4-7-11-3-11-2 1-2 4-2-14-1-14-1-9-1-12z" fill="#67B7F6"/>
<path transform="translate(1243,69)" d="m0 0 2 1v6h2l4 10 2 11 1 7 1 20 2 13-1 3-1 10-3 8h-1l-2-11-3 15h-2l-1 9h-1l-1 24h-1v-124z" fill="#67B7F6"/>
<path transform="translate(1327,93)" d="m0 0h14l1 23v15l-2-1v-4h-5l-2 2h-4v-2l-8-1v-3h-2v-2l-6-1-10-6-1 3v-15l1-6z" fill="#67B7F6"/>
<path transform="translate(1637,38)" d="m0 0 9 1 11 7 12 9 10 8 5 5 2 3 3 2h-22l-17-3-4-23-6-2-2-3-2 4h-2l-3 9-4 4-4 9-9 6-5 1-1 2v-8l4-8h2l2-5 4-4h2l1-3 6-3 5-3z" fill="#68B8F7"/>
<path transform="translate(916,93)" d="m0 0h36v82h-1l-1-25-1-5 1-2h-3l-2 5-2-2-5-11-1-6h-2l-1-7-5-9-6-18-7-1z" fill="#67B7F6"/>
<path transform="translate(1119,93)" d="m0 0h38v99h-1l-1-53h-2v-3h-2l-6-7v-2l-3-1-2-6-3-5-4-4-3-5-5-2 2-9-8-1z" fill="#67B7F6"/>
<path transform="translate(1713,24)" d="m0 0h11l15 8 7 2 3 8 1 10-14 1h-26l1-24z" fill="#D1EAFC"/>
<path transform="translate(1302,195)" d="m0 0 30 1 9 1 5 2v9l-2 4-8 2-20 1h-14l-1-1v-16z" fill="#3B9BEF"/>
<path transform="translate(1720,10)" d="m0 0h9l10 3 10 5 2 3 1 10v17l-2 4-4-17-11-4-11-6-11-1-1 5-1 22-2 2v-18l1-19 3-4z" fill="#68B8F7"/>
<path transform="translate(1528,133)" d="m0 0 14 1 5 2 2 4v8l-4 8-1 19-17-3v-31z" fill="#68B8F7"/>
<path transform="translate(197,134)" d="m0 0h35v15h-11l-7 1-2 6-3 6h-2v2l-10 1z" fill="#6C97BE"/>
<path transform="translate(663,132)" d="m0 0h16l6 2v25h-1l-1-5-17-1-7 3-3-1-3 8-2 3v-21l2-5h4v-3l-2-1 1-3z" fill="#6D97BD"/>
<path transform="translate(1228,16)" d="m0 0h5l4 15 3 3 2 10-1 7-1 1-8 1h-11l-5-1 1-20 1-2 3-1z" fill="#D1EAFC"/>
<path transform="translate(453,25)" d="m0 0h4l3 6 1 11h2v10l-6 3h-12l-9-5v-16l3-2h3l2-4 3-2z" fill="#D5936A"/>
<path transform="translate(298,15)" d="m0 0h21l11 4 2 8v18l-2 21h2v2h38v1l-23 1h-17l-2-3v-25l-2-7-5-2-5-4-3-1h-9l-5 1-2 4v-17z" fill="#98969E"/>
<path transform="translate(196,133)" d="m0 0h32v1h-31v31l2-1h8v-2l2-1 3-8 4-4 5-1h10l1 1v18l-1-3-3 1-2-1-2 5-5 1v2l-7 1h-15l-1-4z" fill="#7F8DAA"/>
<path transform="translate(1959,67)" d="m0 0h40l13 4 7 10 3 2 1 26v27l-2 7h-1l-1 52h-1l-1-92-1-15-3-8-5-4-12-4-6-1h-24l-16 1h-11l-1 2-1-3 20-1v-2z" fill="#68B8F7"/>
<path transform="translate(199,95)" d="m0 0h25l7 3v11l-2 3-5 2h-10v-3l-13-1-3-2-1-10v-2z" fill="#3E9AEC"/>
<path transform="translate(654,95)" d="m0 0h29l1 4-1 13-6 3-11 1 2-5-10-3-8-4-2-8z" fill="#3D9AEC"/>
<path transform="translate(711,90)" d="m0 0h1l2 7 8 3 1 7v18l1 17v32h-1l-3-14-3-9-6-54z" fill="#7197BB"/>
<path transform="translate(1750,68)" d="m0 0 3 1v96l-1 30h-26v-1h25l-1-6 2-54h-2l-1-10v-21l-1-12-4-8-3-12h-30v-1z" fill="#68B8F7"/>
<path transform="translate(1356,52)" d="m0 0h20v1l-13 1-12 3-5 7-2 5-10 2h-29v-1l5-1 5-5 9-3 1-2 13-4z" fill="#68B8F7"/>
<path transform="translate(868,95)" d="m0 0h1l1 11 3 1 1 10v44l-1 34h-2l-1-10-1-1-1-23z" fill="#68B8F7"/>
<path transform="translate(528,107)" d="m0 0 2 4v4l9 1 18 5 3 1v14l-2 1-6-2-4-2-12-2-4-2-3-11z" fill="#8392A9"/>
<path transform="translate(137,73)" d="m0 0h1l2 14 5 1 6 6v15l-4 15-1 5-5-5-2 13h-1l1-17v-18l-2-20z" fill="#7196BA"/>
<path transform="translate(1590,151)" d="m0 0 4 5h2l1-2 6 1v3l1 6 1 10v11h-1l-1-9-8 4h-6l-1 2v-24z" fill="#68B8F7"/>
<path transform="translate(1553,177)" d="m0 0h11l2 1 1 5v10l37 1v1h-55v-15l5 1z" fill="#68B8F7"/>
<path transform="translate(680,170)" d="m0 0h6l4 16 8 5 7 2v1l-21 1-14 1v-1l11-1-1-7-3-7-4-4v-2l-14-1v-1l20-1z" fill="#9A969C"/>
<path transform="translate(1073,110)" d="m0 0h1l1 9 2 4 1 13 1 59h-4l-1-3-1-60z" fill="#68B8F7"/>
<path transform="translate(1302,195)" d="m0 0 30 1v1l-20 1-6 3-1 6 4 3v2h24l4-1 2-6-2-6-2-2h6l5 2v9l-2 4-8 2-20 1h-14l-1-1v-16z" fill="#68B8F7"/>
<path transform="translate(1280,85)" d="m0 0h1v26l1 25 11 2-3 3 1 7h-2v2h-7l-2 15h-1l-1-34v-42z" fill="#68B8F7"/>
<path transform="translate(627,73)" d="m0 0h6v1l-5 1-1 23 12-2h6l-2 4-2 9-7 3-3 5h-4l-1-15v-28z" fill="#9596A0"/>
<path transform="translate(224,153)" d="m0 0 7 1 1 3v10l-1-3-3 1-2-1-2 5-5 1v2l-10 1 2-8h2l2-4 5-4z" fill="#8493A9"/>
<path transform="translate(492,68)" d="m0 0h16l12 2 3 3 1 14-2-4-1-11h-9l-24 3 1 11 1 5-3-3-2-6v-13z" fill="#9294A1"/>
<path transform="translate(48,58)" d="m0 0 4 1-4 2v6l-7 4v62l1 21h-1l-2-15-1-48v-25l4-5z" fill="#8592A9"/>
<path transform="translate(193,95)" d="m0 0h6l-1 3 1 10 2 1 11 1 2 1v3h7v1l-9 2h-6v-2h-7l-3-1-1-5h-3l-1-3 1-9z" fill="#6F96BB"/>
<path transform="translate(1536,97)" d="m0 0 5 1 2 1 1 6-3 3-8 1-9-4v-5l1-1z" fill="#3B9BEF"/>
<path transform="translate(685,150)" d="m0 0h1v20l-4 1-3 1h-9l-1-4 2-4 8-4 5 2z" fill="#8693A7"/>
<path transform="translate(429,140)" d="m0 0 2 3 1 4-1 3 2 1 1 2h-2l-1 10-1 3-4-1-1-3 1-2-2-1-2-5v-3h2l1-7 4-1z" fill="#6C97BE"/>
<path transform="translate(585,67)" d="m0 0h12l-4 2v3l-16 1-4 3h-2l-2 4-3 1-1 10h-1v-12l1-5 16-6z" fill="#95959F"/>
<path transform="translate(446,12)" d="m0 0 4 1v2h-2v2l-4 2v2l-7 3-2 4-1 6h-1v14l1 5 2 1h-3l-3-10v-9l3-12 7-8z" fill="#7B93B0"/>
<path transform="translate(528,107)" d="m0 0 2 4v4l9 1 18 5 3 1-1 7-1-2-9-2-10-4-10-3z" fill="#6F96BC"/>
<path transform="translate(716,134)" d="m0 0 4 1 1 8 2 6 1 14v11h-1l-3-14-3-9-1-6z" fill="#838FA8"/>
<path transform="translate(1775,165)" d="m0 0h1v5l6 2v2l7 1 4 5 4 11-4-2v-2l-5-2-3-1-4-8-6-2z" fill="#68B8F7"/>
<path transform="translate(639,126)" d="m0 0 6 2-2 4-5 2-13 1-2 3-1 30h-1v-33l11-6z" fill="#97969E"/>
<path transform="translate(924,69)" d="m0 0h28v1l-27 1-9 3-4 2h-12l-6-2v-2l-2-1h16z" fill="#68B8F7"/>
<path transform="translate(191,96)" d="m0 0 2 1-4 9-6 3-1 2h-3l-2-5v-8l5 1z" fill="#9C979C"/>
<path transform="translate(1487,175)" d="m0 0 4 2 10 6v5l3 1 1 4h-6l-10-10-2-4z" fill="#68B8F7"/>
<path transform="translate(530,120)" d="m0 0 9 6 7 3 7 2 5 2 1-8h1v11l-2 1-6-2-4-2-12-2-4-2z" fill="#9B969C"/>
<path transform="translate(224,188)" d="m0 0 9 1 1 5 42-1 2-2-1 4-57 1v-1l5-1-2-4z" fill="#8794A7"/>
<path transform="translate(177,110)" d="m0 0h1l2 7 3 1 2 4 1 8-9 3z" fill="#7C8CAB"/>
<path transform="translate(320,16)" d="m0 0 6 1 4 2 2 8v18l-1 14h-1l-1-32-1-3-6-4v-2z" fill="#7694B4"/>
<path transform="translate(210,66)" d="m0 0h15l11 2v1h-26l-18 3h-7v-1z" fill="#8B93A5"/>
<path transform="translate(262,152)" d="m0 0 1 4 4 2 9 17 1 5v11l-2-4-4-16-5-8-3-2z" fill="#8595AA"/>
<path transform="translate(605,72)" d="m0 0h1v21l-2 7-6 4-4 5-3 4 1-5 9-12 3-6z" fill="#9195A2"/>
<path transform="translate(651,134)" d="m0 0h4v2l3 1-1 3-4 1-1 4-1 25h-1v-35z" fill="#97969E"/>
<path transform="translate(585,67)" d="m0 0h12l-4 2v3l-13 1-3-2 1-2z" fill="#97959E"/>
<path transform="translate(48,58)" d="m0 0 4 1-4 2v6l-8 4v-8z" fill="#7396B8"/>
<path transform="translate(1098,71)" d="m0 0h25l-4 2-9 2h-10z" fill="#68B8F7"/>
<path transform="translate(193,109)" d="m0 0h2l1 5h8l2 1v2l3 1-6 2h-5l-2-4-3-1z" fill="#7D8DAB"/>
<path transform="translate(177,110)" d="m0 0h1l1 8 1 4 2 6 2 2h-2v2l-5 1z" fill="#6F96BC"/>
<path transform="translate(320,16)" d="m0 0 6 1 4 2 1 3v7l-2-2-1-3-6-4v-2z" fill="#7E92AD"/>
<path transform="translate(640,105)" d="m0 0 1 4-7 3-3 5h-4v-7l6 1v-2l7-1z" fill="#8191AA"/>
<path transform="translate(298,15)" d="m0 0h21v1l-17 1-4 1v9h-1v-11z" fill="#7D90AD"/>
<path transform="translate(653,134)" d="m0 0h2v2l3 1-1 3-4 1-2 4v-8z" fill="#8190AA"/>
<path transform="translate(462,30)" d="m0 0h1v12h-2l-1-2v-8z" fill="#9C979C"/>
</svg>
