<?xml version="1.0" encoding="UTF-8"?>
<svg version="1.1" viewBox="0 0 2048 274" width="1280" height="1280" xmlns="http://www.w3.org/2000/svg">
<path transform="translate(0)" d="m0 0h2048v274h-2048z" fill="#FEFFFE"/>
<path transform="translate(65,52)" d="m0 0 32 1 16 4 12 5 12 9 7 9 7 14 3 10 2 15v18l-3 18-5 14-7 11-10 10-15 8-15 4-8 1h-67v-150z" fill="#FE9755"/>
<path transform="translate(658,87)" d="m0 0h17l13 3 9 5 7 8 4 10 1 10 1 55 3 2 9 1 1 1 1 19-2 2-11 2h-9l-8-3-8-8-2-5h-2l-7 8-9 7-7 2h-16l-10-3-9-7-6-8-3-9-1-11 2-9 5-8 8-7 12-5 31-7 6-4 2-3v-6l-4-6-5-2h-12l-10 3-12 7-5 5-4-1-8-13-2-3 1-4 10-8 15-7z" fill="#FE9755"/>
<path transform="translate(220,87)" d="m0 0h17l13 3 10 6 6 7 4 11 1 44 1 21 2 1h10l1 5v17l-1 1-7 1h-17l-6-4-5-5-3-6h-2l-7 8-8 6-9 3h-16l-11-4-10-9-4-6-3-11v-9l4-13 5-6 10-6 15-5 24-5 6-4 2-3-1-8-5-5-3-1h-13l-12 4-10 7-4 4-4-1-9-14-2-4 10-9 14-7 10-3z" fill="#FE9755"/>
<path transform="translate(305,44)" d="m0 0h29v61l5-5 8-7 11-5 4-1h15l13 4 8 6 6 9 3 11v86h-27l-1-1-1-75-3-8-5-5-11-2-10 2-7 5-6 10-1 3-2 71h-27l-1-28z" fill="#FE9755"/>
<path transform="translate(577,89)" d="m0 0h28l-2 6-16 42-20 53-11 28-8 15-9 10-10 6-11 3h-19l-12-4v-7l4-17 12 2h12l9-4 7-12-1-7-22-58-10-26-11-27v-2h30l4 9 16 46 7 19 1 4h2l7-19 18-52 2-7z" fill="#FE9755"/>
<path transform="translate(56,77)" d="m0 0h24l14 2 11 4 6 4 7 8 4 9 3 16v16l-3 15-4 10-8 9-12 6-8 2-13 1h-21l-1-1v-100z" fill="#FEFFFE"/>
<path transform="translate(440,89)" d="m0 0h22l6 1v113h-28l-1-52v-61z" fill="#FE9755"/>
<path transform="translate(680,146)" d="m0 0 2 1v17l-4 11-8 7-5 2h-11l-6-3-5-7v-8l3-6 6-5 22-6z" fill="#FEFFFE"/>
<path transform="translate(242,146)" d="m0 0 2 1-1 20-4 9-7 6-5 2h-11l-6-3-4-5-2-9 4-8 6-4 22-6z" fill="#FEFFFE"/>
<path transform="translate(450,42)" d="m0 0h7l7 3 5 5 3 9-3 9-5 5-5 3-7 1-8-3-7-8-1-3v-8l3-7 5-4z" fill="#FE9755"/>
</svg>
