<svg version="1.1" viewBox="0 0 2048 537" width="1280" height="1280" xmlns="http://www.w3.org/2000/svg">
<path transform="translate(0)" d="m0 0h2048v537h-2048z" fill="#FDFBFB"/>
<path transform="translate(120,160)" d="m0 0h15l14 2 14 7 8 7 8 13 4 12 1 7v20l-3 15-6 11-13 15-6 5-5 2h-50l1-26 1-88z" fill="#FFA128"/>
<path transform="translate(158,279)" d="m0 0h1522l174 1 11 1v1l-1074 1h-405l-263 1-28 1-2 1h-16l1-6z" fill="#0A0406"/>
<path transform="translate(402,161)" d="m0 0h23l1 2-2 112h-21l-2-1 2-31v-21l-32-1-1 39v15h-23l-1-1 1-112h25l-2 49 33-1z" fill="#FFA128"/>
<path transform="translate(257,162)" d="m0 0h8l5 4 9 26 6 14 2-1h9l2 4v6l-8 1 2 10 7 21 10 22v6h-24l-1-1-3-19-7-21h-4l-6 5-3 7 1 6 8 13 2 6-5-5-6-10-11-12-7-8-7-6-2 4-2 12v11l4 14v4l-6 1h-30l2-6 10-14 8-14 7-18-1-4-5-6v-5l5-2h8l3-10 7-19 3-12 4-3z" fill="#FFB74D"/>
<path transform="translate(672,162)" d="m0 0h9l5 4 4 8 8 19 9 19 9 31 11 27 1 5h-24l-2-3-5-23-6-17-2-1-2 4-5 4-3 7 1 6 12 18-1 2-7-9-8-11-12-13-8-8-2-1-3 17v9l1 19-26 1-7-1 1-5 13-19 10-19 2-5v-5l-8-8 1-5 3-3 10-2 5-11 6-17 3-10 4-3z" fill="#FFB74D"/>
<path transform="translate(130,170)" d="m0 0h9l10 4 8 6 5 10 2 11 1 24-2 13-4 11-6 8-8 7-5 2-11 1-7-1-1-1v-84l1-8z" fill="#FDFCFC"/>
<path transform="translate(614,137)" d="m0 0h2l-2 5-9 15-13 22-11 17-19 32-2 4 1 18 3 14 2 6v5h-25v-48l-8-16-10-16-13-18-6-8-3-6v-2l17-1 6 2 11 20 12 19 7 12h2l8-12 11-15 9-16 3-8v-16l5-3 10-4z" fill="#FFA127"/>
<path transform="translate(347,162)" d="m0 0h25l-2 4v109h-23l-1-1z" fill="#FFA127"/>
<path transform="translate(257,162)" d="m0 0h8l5 4 9 26 6 14 2-1h9l2 4v6l-8 1 2 10 7 21 10 22v6h-24l-1-1-3-19-7-21-4-8-10-29-5-15h-2l-2-3-4 1-3 4 1-10 2-8 4-3z" fill="#FFA127"/>
<path transform="translate(456,161)" d="m0 0h23l1 1-1 112-1 1h-17l-3-1-1-83z" fill="#FFA127"/>
<path transform="translate(672,162)" d="m0 0h9l5 4 4 8 8 19 9 19 9 31 11 27 1 5h-24l-2-3-5-23-6-17-8-20-8-23-4-9-3-3-3 1-2 2v-8l3-7z" fill="#FFA128"/>
<path transform="translate(111,161)" d="m0 0h12l-2 1 3 7 2 1v2l-3 1-2 15v83l3 4-1 1h-22l1-26 1-88z" fill="#FFA127"/>
<path transform="translate(614,137)" d="m0 0h2l-2 5-9 15-13 22-11 17-19 32-2 2-3-5-3-11 4-4 7-10 12-17 8-15 2-6v-16l5-3 10-4z" fill="#FFB74D"/>
<path transform="translate(253,183)" d="m0 0 4 2 12 36v4l-7 3h-9l-5-3-2-5-5-1v-7l6-16z" fill="#FDFCFC"/>
<path transform="translate(671,182)" d="m0 0 3 3 6 15 8 23v3l-8 2h-9l-5-4-1-2-5-3v-9l6-17 4-10z" fill="#FDFCFC"/>
<path transform="translate(120,188)" d="m0 0h1l1 77 12 1 9-2 6-4 4-3-1 4 10 5-1 4-5 4-5 2h-28l-2-4-1-1z" fill="#FFB74D"/>
<path transform="translate(370,164)" d="m0 0h1v16l-1 31 34-1v12l-33-1v7h-1l-1-16v-46z" fill="#FFB84E"/>
<path transform="translate(120,160)" d="m0 0h15l14 2 3 2h-3v3l-3 1h-8v2l-12 1-5-5z" fill="#FFB74D"/>
<path transform="translate(287,205)" d="m0 0h9l2 4v6l-8 1-2 1-3-10z" fill="#FFB84E"/>
<path transform="translate(541,260)" d="m0 0h1v14h18l1-11 2-2 3 9v5h-25z" fill="#FFB84E"/>
<path transform="translate(510,160)" d="m0 0h8l5 1v1l-13 1v2h-3l-1 2h-3l-2-6z" fill="#FFB64C"/>
<path transform="translate(86,273)" d="m0 0 5 1 1 4-13 1-1-4z" fill="#0A0406"/>
</svg>
