<?xml version="1.0" encoding="UTF-8"?>
<svg version="1.1" viewBox="0 0 2048 537" width="1280" height="1280" xmlns="http://www.w3.org/2000/svg">
<path transform="translate(987,278)" d="m0 0h677l190 1 14 1 3 1 1 2v6l-1-4-6 1-24-2h-504l-2 10-2 1 1-11-57-1-1 11-2 1 1-11h-507l-58-1-19-1v-1l33-1 15-1z" fill="#CB9456"/>
<path transform="translate(341,160)" d="m0 0 30 1 5 2v3l-7 4-1 2-2 38h38v-39l-6-8-2-3h13l21 1 2 1-2 4-5 5-1 2-1 9-1 23v56l4 5 5 4-1 3-17 1h-17l1-4 5-7 1-3 1-12v-27h-24l-14-1 1 43 6 4 1 4-1 1-8 1h-24l2-5 4-6 1-5v-36l-14 1v-3l7-6 7-2v-40l-5-5-3-5z" fill="#C38643"/>
<path transform="translate(98,160)" d="m0 0h22l25 1 10 3 11 7 8 8 6 12 3 14v25l-3 13-7 12-8 9-9 6-13 3-49 2 3 4h38l19-1 6 1v1l-30 2v1l-19-1h-14l-2 7h-17l-1-3 1-12 1-1 13-1 7-6 2-1 1-5v-90l-4-5zm22 8-1 7-1 89 1 1h19l8-3 9-7 6-10 3-15v-20l-2-19-4-10-8-7-15-5-5-1z" fill="#C58946"/>
<path transform="translate(660,161)" d="m0 0h35l-2 4-4 4 1 9 6 15 3 5 2 8 4-2 2-3 6 1 9 8v2l-14 6v6l8 24 8 15 9 7 1 3-38 1-2-1 2-4 6-7-8-24-3-7-5 5-6 7-2 9-5-2-12-13-7-8-2-1-4 16-1 2v11l4 8 3 7v2h-34v-4l12-15 8-16 5-15v-4l-11-5 1-5 8-11h2l4 6 2 1 8-20 5-13-2-6-2-3zm10 21-9 21-4 10 2 5 15 15 13-11-1-7-8-20-7-13z" fill="#C58845"/>
<path transform="translate(266,160)" d="m0 0h10l-1 5-4 6 1 5 2 6 4 11 6 13 7-4 6 1 5 5-1 5-10 5h-2l3 12 10 28 7 8 5 4v2l-4 1-31 1-2-1 1-4 6-7-5-17-5-12h-4l-6 7-6 11-5-3-13-16-2-4-3 3-5 14-1 3v10l6 10 2 5-2 1h-33l-1-2 12-16 6-10 6-14 3-12-10-4-2-4 7-11 4-1v2l3 1 1 5h2l3-10 7-16 3-8-2-7-2-3v-3zm-13 22-13 29 1 7 10 10 3 5 4-1 11-10-1-7-8-20-6-13z" fill="#C58946"/>
<path transform="translate(621,130)" d="m0 0 1 3-11 12-10 14-12 20-15 24-7 11-6 10-2 34 2 4 10 7 8 5v2l-14-2-31-1 1-4 6-7v-36l-5-10-12-18-11-18-9-11-7-6v-2l35-1 3 1-1 4-6 5 1 5 26 39 2 1 2-5 12-19 10-15 7-14-1-7-5-7v-2l27-9z" fill="#C58946"/>
<path transform="translate(450,160)" d="m0 0h18l15 1 2 1v3l-6 5-1 2-1 17v34h3v30l-3 2 1 7 4 6 4 4-1 1-11 1h-22l-1-3 6-10 1-4v-63l1-19-4-8-5-5zm27 86v7h1v-7z" fill="#C58946"/>
<path transform="translate(341,160)" d="m0 0 30 1 5 2v3l-7 4-1 2-1 13v78l6 4 1 4-1 1-8 1h-24l2-5 4-6 1-5v-36l-14 1v-3l7-6 7-2v-40l-5-5-3-5z" fill="#C48744"/>
<path transform="translate(660,161)" d="m0 0h35l-2 4-4 4-2 4-1-7-12-1-5 4v11l1 4-8 19-4 10 2 5 14 14 9-8h2l1 7 3 1-9 11-2 9-5-2-12-13-7-8-2-1-4 16-1 2v11l4 8 3 7v2h-34v-4l12-15 8-16 5-15v-4l-11-5 1-5 8-11h2l4 6 2 1 8-20 5-13-2-6-2-3z" fill="#F4CCA1"/>
<path transform="translate(266,160)" d="m0 0h10l-1 5-5 8h-1l-2-6-4-2h-8l-4 1-2 4v6l2 6h2l-3 9-9 20 1 7 8 7 4 6v2l5-3 8-7 1 3v6l2 1-6 7-6 11-5-3-13-16-2-4-3 3-5 14-1 3v10l6 10 2 5-2 1h-33l-1-2 12-16 6-10 6-14 3-12-10-4-2-4 7-11 4-1v2l3 1 1 5h2l3-10 7-16 3-8-2-7-2-3v-3z" fill="#F4CCA0"/>
<path transform="translate(163,174)" d="m0 0 6 2 6 8 2 6 3 1 3 14v25l-3 13-7 12-12 10-7-1-3-3 2-5 6-9 3-10 1-7v-20l-2-19-3-8v-6z" fill="#C58946"/>
<path transform="translate(621,130)" d="m0 0 1 3-11 12-10 14-12 20-15 24-7 11-6 10-1 18h-1l-1-12v-14l-3-1h2l2-5 12-19 10-15 7-14-1-7-5-7v-2l27-9z" fill="#F4CCA1"/>
<path transform="translate(103,222)" d="m0 0h1v44l1 5h11l2-7h20l8-3 5-4 2 1v4l3 2h5l9-8v3l-10 9-8 3-9 2-49 2 3 4h38l19-1 6 1v1l-30 2v1l-19-1h-14l-2 7h-17l-1-3 1-12 1-1 13-1 7-6 2-1 1-5z" fill="#F4CCA0"/>
<path transform="translate(98,160)" d="m0 0h22l25 1 10 3 11 7 8 8 5 10-2 1-6-11-3-3-5-1-4 2-2 4-7-6-15-5-15-2v7h-1l-1-9-2-3-11-1-1 6v24h-1l-1-22-4-5z" fill="#F4CCA0"/>
<path transform="translate(396,160)" d="m0 0h13v2h-3v4h-2l2 4v36l-2 15h-24l-14-1 1-10h37v-39l-6-8z" fill="#F4CCA0"/>
<path transform="translate(218,254)" d="m0 0h6l3 3 3 6 5 5 2 5-2 1h-33l-1-2 10-13z" fill="#C38643"/>
<path transform="translate(94,271)" d="m0 0 1 3v2l2 3h38l19-1 6 1v1l-30 2v1l-19-1h-14l-2 7h-17l-1-3 1-12 1-1 13-1z" fill="#C58947"/>
<path transform="translate(411,161)" d="m0 0h19l2 1-2 4-5 5-1 2-1 9-1 23v56l4 5 5 4-1 3h-17l3-2 2-1 1-7 1-79 3-17 1-5h-13z" fill="#F4CCA0"/>
<path transform="translate(542,250)" d="m0 0h1l1 17 3 3h11l1-9 11 7 5 4 4 2v2l-14-2-31-1 1-4 6-7z" fill="#F4CCA0"/>
<path transform="translate(707,201)" d="m0 0 6 1 9 8v2l-14 6-2 3v-8l-2-4-3-2 5-4z" fill="#F4CCA0"/>
<path transform="translate(638,257)" d="m0 0 7 2 1 6-3 6-2 1h-6l-4-4v-5z" fill="#C38642"/>
<path transform="translate(475,190)" d="m0 0h1l1 33h3v30l-5 2zm2 56v7h1v-7z" fill="#F4CCA0"/>
<path transform="translate(475,260)" d="m0 0h2l5 8 4 4-1 1-11 1h-22l-1-3 6-10 2 1-2 7 1 2 3 1h11l2-1 1-3z" fill="#F4CDA2"/>
<path transform="translate(450,160)" d="m0 0h18l15 1 2 1v3l-6 4-2-6h-15l-2 4v8l-2-3-6-8z" fill="#F4CEA3"/>
<path transform="translate(719,256)" d="m0 0 8 10 6 4 1 3h-21l5-4 1-10z" fill="#F4CCA1"/>
<path transform="translate(599,173)" d="m0 0v3l-12 21-12 19-7 9-3 1 2-5 9-13 12-17 9-16z" fill="#F4CCA0"/>
<path transform="translate(207,264)" d="m0 0 1 2-1 3 1 3h23v-8l5 5 1 4-2 1h-33l-1-2z" fill="#F4CCA0"/>
<path transform="translate(405,241)" d="m0 0h1v16l-2 7 1 8 8 1v1h-17l1-4 5-7 1-3z" fill="#F4CCA0"/>
<path transform="translate(291,202)" d="m0 0 6 1 5 5-1 5-7 4-2-1 4-3-1-3-9-4z" fill="#F4CCA0"/>
<path transform="translate(522,160)" d="m0 0h10l3 1-1 4-6 5-2 3-1-7-5-3-7-1v-1z" fill="#F4CCA0"/>
<path transform="translate(302,259)" d="m0 0 5 5 7 6v2l-4 1h-17v-1l8-2 2-3z" fill="#F4CCA0"/>
<path transform="translate(346,211)" d="m0 0 2 1v8l-10 2-5-1 6-7z" fill="#F4CCA0"/>
<path transform="translate(146,278)" d="m0 0h8l6 1v1l-30 2v1l-17-1v-2z" fill="#C38642"/>
<path transform="translate(1645,278)" d="m0 0h19l2 2-1 1h-27l-4-2z" fill="#FAEAD8"/>
<path transform="translate(1582,278)" d="m0 0h18l6 1-1 2h-26l-4-2z" fill="#F9E5CF"/>
<path transform="translate(1412,278)" d="m0 0 17 1v2h-32v-2z" fill="#F9E7D3"/>
<path transform="translate(987,278)" d="m0 0h22v3h-19l-6-1z" fill="#F7DDC0"/>
<path transform="translate(497,161)" d="m0 0h15l-4 5h-2l-1 4-8-7z" fill="#F4CCA0"/>
<path transform="translate(367,264)" d="m0 0 5 2 2 5-1 1-8 1h-12v-1l14-2z" fill="#F4CCA1"/>
<path transform="translate(457,261)" d="m0 0 2 1-2 7 1 2 13 2v1h-19l-1-3z" fill="#F4CCA0"/>
<path transform="translate(700,265)" d="m0 0 2 2 1 5 5 1v1h-12l-2-1 2-4z" fill="#F4CCA0"/>
<path transform="translate(396,160)" d="m0 0h13v2h-3v4h-2l1 4-5-5z" fill="#F4CDA3"/>
<path transform="translate(356,161)" d="m0 0h15l5 2v3l-5 2-1-3-8-2-6-1z" fill="#F4D1AB"/>
<path transform="translate(347,262)" d="m0 0h1l1 10 2 1h-10l2-5z" fill="#F4CCA0"/>
<path transform="translate(718,221)" d="m0 0h12l-1 3-17 1 3-3z" fill="#F4CDA2"/>
<path transform="translate(341,160)" d="m0 0 8 1-1 8-7-5-1-3z" fill="#F7DDC1"/>
<path transform="translate(282,265)" d="m0 0h1l2 6 1 2-7 1-2-1 1-4z" fill="#F4CCA0"/>
<path transform="translate(175,262)" d="m0 0v3l-6 7-5 2-4-1 10-6z" fill="#F4CCA0"/>
<path transform="translate(477,161)" d="m0 0h6l2 1v3l-6 4z" fill="#F1C99D"/>
<path transform="translate(308,220)" d="m0 0 3 1v2l-6 1h-10l2-2z" fill="#F5D2AC"/>
<path transform="translate(1867,282)" d="m0 0 5 1v6l-1-4-6 1-13-1v-1l14-1z" fill="#F7DBBD"/>
<path transform="translate(146,278)" d="m0 0h8l6 1v1l-20 1-5-1v-1z" fill="#F4CEA5"/>
<path transform="translate(653,237)" d="m0 0 2 4-1 7-1 2h-2v-9z" fill="#F4D0A8"/>
<path transform="translate(481,177)" d="m0 0h2l-1 15-3-1 1-11z" fill="#F4CCA0"/>
<path transform="translate(539,172)" d="m0 0 2 2 6 14 2 5-4-4-5-11z" fill="#F4CFA6"/>
<path transform="translate(299,232)" d="m0 0 2 3 3 7 1 4h-3l-3-7z" fill="#F4CDA3"/>
<path transform="translate(1820,264)" d="m0 0 3 2 1 5-1 5h-1l-2-7z" fill="#FEFEFE"/>
<path transform="translate(486,165)" d="m0 0h2v6l-4 2 1-7z" fill="#F4D0A8"/>
<path transform="translate(716,231)" d="m0 0h2l3 8-1 3-3-6z" fill="#F4CCA0"/>
<path transform="translate(479,203)" d="m0 0h1v18h-1z" fill="#F4CCA0"/>
<path transform="translate(433,165)" d="m0 0h1v9l-2 1v-9z" fill="#F4CCA0"/>
<path transform="translate(1571,285)" d="m0 0 2 1-1 7-2 1z" fill="#FCF6EF"/>
<path transform="translate(156,274)" d="m0 0h2v2l-7 1 2-2z" fill="#F4CCA0"/>
<path transform="translate(376,168)" d="m0 0 1 4-1 5h-1v-8z" fill="#F8E0C7"/>
<path transform="translate(1453,286)" d="m0 0 1 2-2 7-1-3z" fill="#FCF4EC"/>
<path transform="translate(1491,287)" d="m0 0h4l-1 5-3-4z" fill="#FCF4EC"/>
<path transform="translate(1156,286)" d="m0 0 1 4-1 4-2-1z" fill="#FAEBDB"/>
<path transform="translate(277,172)" d="m0 0 1 3-4 1 1-3z" fill="#FCF4EC"/>
<path transform="translate(1073,288)" d="m0 0h3v4h-3z" fill="#FEFEFE"/>
<path transform="translate(1014,288)" d="m0 0h3l1 3h-4z" fill="#FEFEFE"/>
<path transform="translate(1394,286)" d="m0 0 1 4-2 4v-6z" fill="#FEFEFE"/>
<path transform="translate(741,274)" d="m0 0 4 1-1 3-3-3z" fill="#FDF9F4"/>
<path transform="translate(957,287)" d="m0 0 1 3h-4l1-2 2 1z" fill="#FEFEFE"/>
<path transform="translate(1240,264)" d="m0 0h2l1 6-3-4z" fill="#FEFEFE"/>
<path transform="translate(700,195)" d="m0 0h3l-1 4z" fill="#F4CCA0"/>
<path transform="translate(696,170)" d="m0 0h1v6l-2-1z" fill="#FEFEFE"/>
<path transform="translate(1132,288)" d="m0 0 4 1-1 3-3-2z" fill="#FEFEFE"/>
<path transform="translate(797,286)" d="m0 0 1 2-2 4-1-2z" fill="#FEFEFE"/>
<path transform="translate(1642,265)" d="m0 0 4 1v2l-4-2z" fill="#FAEBDA"/>
<path transform="translate(1789,287)" d="m0 0 3 3-1 2-2-2z" fill="#FEFEFE"/>
<path transform="translate(836,288)" d="m0 0h3v3h-2z" fill="#F9E8D5"/>
<path transform="translate(1096,287)" d="m0 0h2l-1 5h-1z" fill="#FEFEFE"/>
<path transform="translate(323,275)" d="m0 0h4v2l-4-1z" fill="#FEFEFE"/>
<path transform="translate(1658,266)" d="m0 0h4l-1 3z" fill="#F5D3AD"/>
<path transform="translate(1511,291)" d="m0 0 1 3h-3z" fill="#FAEDDE"/>
<path transform="translate(1216,286)" d="m0 0 1 4-2 1z" fill="#FEFEFE"/>
<path transform="translate(1512,285)" d="m0 0h1v6h-1z" fill="#F5D4AF"/>
<path transform="translate(591,281)" d="m0 0h6v1h-6z" fill="#D39D61"/>
<path transform="translate(480,196)" d="m0 0h1v6h-1z" fill="#F4CCA0"/>
<path transform="translate(426,188)" d="m0 0 3 2-4 1z" fill="#F4CCA0"/>
<path transform="translate(373,184)" d="m0 0h1v5l-2-1z" fill="#F4CCA0"/>
<path transform="translate(1553,287)" d="m0 0 1 4-2-1z" fill="#FEFEFE"/>
<path transform="translate(1034,288)" d="m0 0h1v5h-1z" fill="#FEFEFE"/>
<path transform="translate(915,286)" d="m0 0 2 1-2 3z" fill="#FAEAD8"/>
<path transform="translate(1813,286)" d="m0 0 1 3-2 1z" fill="#FEFEFE"/>
<path transform="translate(1692,287)" d="m0 0h3v2l-3-1z" fill="#FAEAD8"/>
<path transform="translate(1754,286)" d="m0 0 1 2-2 2z" fill="#FEFEFE"/>
<path transform="translate(1594,266)" d="m0 0h3v2l-3-1z" fill="#FAEAD8"/>
<path transform="translate(1582,265)" d="m0 0 1 2-2 2z" fill="#FCF4EB"/>
<path transform="translate(1481,264)" d="m0 0 2 1-1 2-2-2z" fill="#FEFEFE"/>
<path transform="translate(1402,265)" d="m0 0h2l-1 3z" fill="#FCF4EB"/>
<path transform="translate(1061,265)" d="m0 0 3 1-1 2z" fill="#FEFEFE"/>
<path transform="translate(662,211)" d="m0 0 1 3h-2z" fill="#F4CCA0"/>
<path transform="translate(374,178)" d="m0 0h1v5h-1z" fill="#FEFEFE"/>
<path transform="translate(431,176)" d="m0 0h2l-1 4z" fill="#F4CCA0"/>
<path transform="translate(1810,292)" d="m0 0h2v2h-2z" fill="#FEFEFE"/>
<path transform="translate(1729,288)" d="m0 0 2 3h-2z" fill="#FEFEFE"/>
<path transform="translate(1691,289)" d="m0 0 2 1-1 2z" fill="#F9E5CF"/>
<path transform="translate(1624,289)" d="m0 0 2 1-1 2z" fill="#FEFEFE"/>
<path transform="translate(1194,289)" d="m0 0v3z" fill="#FEFEFE"/>
<path transform="translate(898,289)" d="m0 0v3z" fill="#FEFEFE"/>
<path transform="translate(1633,286)" d="m0 0 2 1-1 2z" fill="#F9E5CF"/>
<path transform="translate(975,286)" d="m0 0 1 4z" fill="#F6D8B7"/>
<path transform="translate(1344,266)" d="m0 0h2v2h-2z" fill="#FEFEFE"/>
<path transform="translate(1301,266)" d="m0 0h2l-1 3z" fill="#FEFEFE"/>
<path transform="translate(1355,265)" d="m0 0 4 1z" fill="#FEFEFE"/>
<path transform="translate(177,259)" d="m0 0v3z" fill="#F4CCA0"/>
<path transform="translate(664,208)" d="m0 0v3z" fill="#F9E5CF"/>
<path transform="translate(668,202)" d="m0 0v3z" fill="#FEFEFE"/>
<path transform="translate(431,180)" d="m0 0 1 4z" fill="#F4CCA0"/>
<path transform="translate(601,170)" d="m0 0v3z" fill="#F4CCA0"/>
<path transform="translate(1214,293)" d="m0 0 2 1-2 1z" fill="#F7DCBF"/>
<path transform="translate(1752,292)" d="m0 0 1 2-2-1z" fill="#F7DCBF"/>
<path transform="translate(914,290)" d="m0 0" fill="#FEFEFE"/>
<path transform="translate(1672,290)" d="m0 0 1 2-2-1z" fill="#FEFEFE"/>
<path transform="translate(1632,289)" d="m0 0 2 2h-2z" fill="#FEFEFE"/>
<path transform="translate(855,289)" d="m0 0" fill="#FEFEFE"/>
<path transform="translate(778,289)" d="m0 0 2 2h-2z" fill="#FEFEFE"/>
<path transform="translate(1252,288)" d="m0 0" fill="#FEFEFE"/>
<path transform="translate(1332,286)" d="m0 0" fill="#FEFEFE"/>
<path transform="translate(856,286)" d="m0 0" fill="#FEFEFE"/>
<path transform="translate(1e3 266)" d="m0 0h2l-1 2z" fill="#FAEDDE"/>
<path transform="translate(985,266)" d="m0 0h2l-1 2z" fill="#F7DCBF"/>
<path transform="translate(1761,264)" d="m0 0" fill="#FEFEFE"/>
<path transform="translate(1424,265)" d="m0 0 1 2-2-1z" fill="#FEFEFE"/>
<path transform="translate(931,265)" d="m0 0h2l-1 2z" fill="#FEFEFE"/>
<path transform="translate(538,169)" d="m0 0" fill="#F7DCBF"/>
<path transform="translate(1568,294)" d="m0 0 2 1z" fill="#FEFEFE"/>
<path transform="translate(1095,292)" d="m0 0" fill="#FEFEFE"/>
<path transform="translate(1611,291)" d="m0 0 2 1z" fill="#FEFEFE"/>
<path transform="translate(1087,290)" d="m0 0" fill="#FEFEFE"/>
<path transform="translate(1795,289)" d="m0 0" fill="#FEFEFE"/>
<path transform="translate(1147,289)" d="m0 0" fill="#FEFEFE"/>
<path transform="translate(1564,288)" d="m0 0" fill="#FEFEFE"/>
<path transform="translate(1551,288)" d="m0 0" fill="#FEFEFE"/>
<path transform="translate(1433,288)" d="m0 0" fill="#FEFEFE"/>
<path transform="translate(1094,288)" d="m0 0" fill="#FEFEFE"/>
<path transform="translate(1139,287)" d="m0 0" fill="#FEFEFE"/>
<path transform="translate(1134,287)" d="m0 0" fill="#FEFEFE"/>
<path transform="translate(1036,287)" d="m0 0" fill="#FEFEFE"/>
<path transform="translate(657,272)" d="m0 0 2 1z" fill="#F4CCA0"/>
<path transform="translate(880,268)" d="m0 0 2 1z" fill="#FEFEFE"/>
<path transform="translate(1654,266)" d="m0 0" fill="#FEFEFE"/>
<path transform="translate(1284,265)" d="m0 0 2 1z" fill="#FEFEFE"/>
<path transform="translate(179,256)" d="m0 0" fill="#F4CCA0"/>
<path transform="translate(181,253)" d="m0 0" fill="#F4CCA0"/>
<path transform="translate(372,247)" d="m0 0" fill="#F9E5CF"/>
<path transform="translate(722,244)" d="m0 0" fill="#F9E5CF"/>
<path transform="translate(721,242)" d="m0 0" fill="#F4CCA0"/>
<path transform="translate(669,198)" d="m0 0" fill="#FEFEFE"/>
<path transform="translate(603,167)" d="m0 0" fill="#F9E5CF"/>
<path transform="translate(537,167)" d="m0 0" fill="#F4CCA0"/>
<path transform="translate(1392,294)" d="m0 0" fill="#FEFEFE"/>
<path transform="translate(913,293)" d="m0 0" fill="#FEFEFE"/>
<path transform="translate(1684,290)" d="m0 0" fill="#FEFEFE"/>
<path transform="translate(1613,290)" d="m0 0" fill="#FEFEFE"/>
<path transform="translate(1558,290)" d="m0 0" fill="#FEFEFE"/>
<path transform="translate(1434,290)" d="m0 0" fill="#FEFEFE"/>
<path transform="translate(1610,289)" d="m0 0" fill="#FEFEFE"/>
<path transform="translate(1500,289)" d="m0 0" fill="#FEFEFE"/>
<path transform="translate(1192,289)" d="m0 0" fill="#FEFEFE"/>
<path transform="translate(1086,289)" d="m0 0" fill="#FEFEFE"/>
<path transform="translate(896,289)" d="m0 0" fill="#FEFEFE"/>
<path transform="translate(1868,288)" d="m0 0" fill="#FEFEFE"/>
<path transform="translate(1623,288)" d="m0 0" fill="#FEFEFE"/>
<path transform="translate(1609,288)" d="m0 0" fill="#FEFEFE"/>
<path transform="translate(1508,288)" d="m0 0" fill="#FEFEFE"/>
<path transform="translate(1449,288)" d="m0 0" fill="#FEFEFE"/>
<path transform="translate(1391,288)" d="m0 0" fill="#FEFEFE"/>
<path transform="translate(1085,288)" d="m0 0" fill="#FEFEFE"/>
<path transform="translate(1080,288)" d="m0 0" fill="#FEFEFE"/>
<path transform="translate(971,288)" d="m0 0" fill="#FEFEFE"/>
<path transform="translate(962,288)" d="m0 0" fill="#F4CCA0"/>
<path transform="translate(903,288)" d="m0 0" fill="#FEFEFE"/>
<path transform="translate(777,288)" d="m0 0" fill="#FEFEFE"/>
<path transform="translate(1850,287)" d="m0 0" fill="#FEFEFE"/>
<path transform="translate(1550,287)" d="m0 0" fill="#FEFEFE"/>
<path transform="translate(1432,287)" d="m0 0" fill="#FEFEFE"/>
<path transform="translate(1312,287)" d="m0 0" fill="#FEFEFE"/>
<path transform="translate(1214,287)" d="m0 0" fill="#FEFEFE"/>
<path transform="translate(1193,287)" d="m0 0" fill="#FEFEFE"/>
<path transform="translate(870,269)" d="m0 0" fill="#FEFEFE"/>
<path transform="translate(1064,268)" d="m0 0" fill="#FEFEFE"/>
<path transform="translate(1006,268)" d="m0 0" fill="#FEFEFE"/>
<path transform="translate(1589,267)" d="m0 0" fill="#FEFEFE"/>
<path transform="translate(1590,266)" d="m0 0" fill="#FEFEFE"/>
<path transform="translate(1422,265)" d="m0 0" fill="#FEFEFE"/>
<path transform="translate(1289,265)" d="m0 0" fill="#FEFEFE"/>
<path transform="translate(178,258)" d="m0 0" fill="#F4CCA0"/>
<path transform="translate(180,255)" d="m0 0" fill="#F4CCA0"/>
<path transform="translate(182,252)" d="m0 0" fill="#F4CCA0"/>
<path transform="translate(429,250)" d="m0 0" fill="#F4CCA0"/>
<path transform="translate(183,250)" d="m0 0" fill="#F4CCA0"/>
<path transform="translate(184,249)" d="m0 0" fill="#F4CCA0"/>
<path transform="translate(185,247)" d="m0 0" fill="#F4CCA0"/>
<path transform="translate(186,245)" d="m0 0" fill="#F4CCA0"/>
<path transform="translate(187,243)" d="m0 0" fill="#F4CCA0"/>
<path transform="translate(190,210)" d="m0 0" fill="#FEFEFE"/>
<path transform="translate(665,207)" d="m0 0" fill="#FEFEFE"/>
<path transform="translate(288,202)" d="m0 0" fill="#F4CCA0"/>
<path transform="translate(669,201)" d="m0 0" fill="#FEFEFE"/>
<path transform="translate(670,197)" d="m0 0" fill="#FEFEFE"/>
<path transform="translate(550,195)" d="m0 0" fill="#FEFEFE"/>
<path transform="translate(549,193)" d="m0 0" fill="#FEFEFE"/>
<path transform="translate(430,187)" d="m0 0" fill="#FEFEFE"/>
<path transform="translate(602,169)" d="m0 0" fill="#F4CCA0"/>
<path transform="translate(604,166)" d="m0 0" fill="#FEFEFE"/>
<path transform="translate(376,166)" d="m0 0" fill="#F4CCA0"/>
<path transform="translate(536,165)" d="m0 0" fill="#FEFEFE"/>
<path transform="translate(619,144)" d="m0 0" fill="#FEFEFE"/>
<path transform="translate(620,142)" d="m0 0" fill="#FEFEFE"/>
<path transform="translate(621,141)" d="m0 0" fill="#FEFEFE"/>
</svg>
