<svg width="24" height="25" viewBox="0 0 24 25" fill="none" xmlns="http://www.w3.org/2000/svg">
<path d="M20.447 21.3524H16.8929V15.7834C16.8929 14.4554 16.866 12.7464 15.0409 12.7464C13.188 12.7464 12.905 14.1914 12.905 15.6854V21.3524H9.351V9.90034H12.765V11.4614H12.811C13.288 10.5614 14.448 9.61136 16.1809 9.61136C19.782 9.61136 20.448 11.9814 20.448 15.0663L20.447 21.3524ZM5.337 8.33337C4.193 8.33337 3.27399 7.4074 3.27399 6.2684C3.27399 5.13039 4.19399 4.20539 5.337 4.20539C6.47699 4.20539 7.40099 5.13039 7.40099 6.2684C7.40099 7.4074 6.476 8.33337 5.337 8.33337ZM7.11899 21.3524H3.555V9.90034H7.11899V21.3524ZM22.225 0.900391H1.771C0.791997 0.900391 0 1.67439 0 2.62939V23.1714C0 24.1274 0.791997 24.9004 1.771 24.9004H22.222C23.2 24.9004 24 24.1274 24 23.1714V2.62939C24 1.67439 23.2 0.900391 22.222 0.900391H22.225Z" fill="white"/>
</svg>
