<svg width="38" height="38" viewBox="0 0 38 38" fill="none" xmlns="http://www.w3.org/2000/svg">
<path d="M13.6191 5.9375C9.40259 5.9375 5.9375 9.39795 5.9375 13.6191V24.3808C5.9375 28.5974 9.39795 32.0625 13.6191 32.0625H24.3808C28.5974 32.0625 32.0625 28.6021 32.0625 24.3808V13.6191C32.0625 9.40259 28.6021 5.9375 24.3808 5.9375H13.6191ZM13.6191 8.3125H24.3808C27.3171 8.3125 29.6875 10.6829 29.6875 13.6191V24.3808C29.6875 27.3171 27.3171 29.6875 24.3808 29.6875H13.6191C10.6829 29.6875 8.3125 27.3171 8.3125 24.3808V13.6191C8.3125 10.6829 10.6829 8.3125 13.6191 8.3125ZM26.0137 10.9101C25.4154 10.9101 24.9375 11.3879 24.9375 11.9863C24.9375 12.5847 25.4154 13.0625 26.0137 13.0625C26.612 13.0625 27.0899 12.5847 27.0899 11.9863C27.0899 11.3879 26.612 10.9101 26.0137 10.9101ZM19 11.875C15.0803 11.875 11.875 15.0803 11.875 19C11.875 22.9197 15.0803 26.125 19 26.125C22.9197 26.125 26.125 22.9197 26.125 19C26.125 15.0803 22.9197 11.875 19 11.875ZM19 14.25C21.6394 14.25 23.75 16.3606 23.75 19C23.75 21.6394 21.6394 23.75 19 23.75C16.3606 23.75 14.25 21.6394 14.25 19C14.25 16.3606 16.3606 14.25 19 14.25Z" fill="white"/>
</svg>
